# xmcd
#
# Track frame offsets: 
#        150
#        16482
#        38840
#        66032
#
# Disc length: 1200 seconds
#
# Revision: 3
# Processed by: cddbd v1.5.2PL0 Copyright (c) Steve Scherf et al.
# Submitted via: ExactAudioCopy v1.0b3
#
DISCID=2b04ae04
DTITLE=Mantronik vs. EPMD - Strictly Business
DYEAR=1998
DGENRE=Electro
TTITLE0=Strictly Business (Mantronik MBA Radio Edit)
TTITLE1=Strictly Business (Mantronik MBA Formula)
TTITLE2=Strictly Business (Rascal Dub)
TTITLE3=Strictly Business (Mantronik MBA Instrumental)
EXTD=Kasey Chambers Hollywood single\n
EXTT0=
EXTT1=
EXTT2=
EXTT3=
PLAYORDER=
